<?xml version="1.0" encoding="utf-8"?>
<!-- Generator: Adobe Illustrator 22.1.0, SVG Export Plug-In . SVG Version: 6.00 Build 0)  -->
<svg version="1.1" id="Layer_1" xmlns="http://www.w3.org/2000/svg" xmlns:xlink="http://www.w3.org/1999/xlink" x="0px" y="0px"
	 viewBox="0 0 78.2 12.1" style="enable-background:new 0 0 78.2 12.1;" xml:space="preserve">
<style type="text/css">
	.st0{display:none;}
	.st1{display:inline;}
	.st2{display:inline;fill:#040504;}
	.st3{display:inline;fill:#609248;}
	.st4{display:inline;fill:#006938;}
	.st5{fill:#609248;}
	.st6{fill:#54B948;}
	.st7{fill:#155C2E;}
</style>
<g id="Layer_1_1_" class="st0">
	<path class="st1" d="M116,134.5c-0.4,0.2-1.2,0.4-2.1,0.4c-2.3,0-4-1.4-4-4.1c0-2.5,1.7-4.2,4.2-4.2c1,0,1.6,0.2,1.9,0.4l-0.3,0.9
		c-0.4-0.2-1-0.3-1.6-0.3c-1.9,0-3.2,1.2-3.2,3.3c0,2,1.1,3.3,3.1,3.3c0.6,0,1.3-0.1,1.7-0.3L116,134.5z"/>
	<path class="st1" d="M124,130.6c0,2.8-1.7,4.3-3.8,4.3c-2.1,0-3.6-1.7-3.6-4.1c0-2.6,1.6-4.2,3.8-4.2
		C122.5,126.5,124,128.2,124,130.6z M117.7,130.7c0,1.7,0.9,3.3,2.6,3.3s2.6-1.5,2.6-3.4c0-1.6-0.8-3.3-2.6-3.3
		C118.6,127.4,117.7,129,117.7,130.7z"/>
	<path class="st1" d="M141.3,130.9h-3.1v2.9h3.5v0.9h-4.5v-8.1h4.4v0.9h-3.3v2.6h3.1L141.3,130.9L141.3,130.9z"/>
	<path class="st1" d="M148.7,134.5c-0.4,0.2-1.2,0.4-2.1,0.4c-2.3,0-4-1.4-4-4.1c0-2.5,1.7-4.2,4.2-4.2c1,0,1.6,0.2,1.9,0.4
		l-0.3,0.9c-0.4-0.2-1-0.3-1.6-0.3c-1.9,0-3.2,1.2-3.2,3.3c0,2,1.1,3.3,3.1,3.3c0.6,0,1.3-0.1,1.7-0.3L148.7,134.5z"/>
	<path class="st1" d="M151.9,127.5h-2.5v-0.9h6v0.9h-2.5v7.2h-1.1v-7.2H151.9z"/>
	<path class="st2" d="M167.8,126.7h4.4v0.9h-3.3v2.7h3.1v0.9h-3.1v3.7h-1L167.8,126.7L167.8,126.7z"/>
	<path class="st2" d="M174,132.2l-0.8,2.5h-1.1l2.7-8.1h1.3l2.8,8.1h-1.1l-0.9-2.5H174z M176.7,131.4l-0.8-2.3
		c-0.2-0.5-0.3-1-0.4-1.5l0,0c-0.1,0.5-0.3,1-0.4,1.5l-0.8,2.3H176.7z"/>
	<path class="st2" d="M179.9,133.5c0.5,0.3,1.2,0.5,1.9,0.5c1.1,0,1.7-0.6,1.7-1.4c0-0.8-0.4-1.2-1.5-1.6c-1.3-0.5-2.1-1.2-2.1-2.3
		c0-1.3,1-2.2,2.6-2.2c0.8,0,1.4,0.2,1.8,0.4l-0.3,0.9c-0.3-0.1-0.8-0.4-1.5-0.4c-1.1,0-1.5,0.7-1.5,1.2c0,0.8,0.5,1.1,1.6,1.6
		c1.4,0.5,2.1,1.2,2.1,2.4s-0.9,2.3-2.8,2.3c-0.8,0-1.6-0.2-2.1-0.5L179.9,133.5z"/>
	<path class="st2" d="M187.5,127.5H185v-0.9h6v0.9h-2.5v7.2h-1.1v-7.2H187.5z"/>
	<path class="st3" d="M125.3,134.7v-8.1h1.1l2.6,4.1c0.6,0.9,1.1,1.8,1.5,2.6l0,0c-0.1-1.1-0.1-2.1-0.1-3.3v-3.4h1v8.1h-1.1
		l-2.6-4.1c-0.6-0.9-1.1-1.8-1.5-2.7l0,0c0.1,1,0.1,2,0.1,3.3v3.5H125.3z"/>
	<path class="st4" d="M130.2,134.7v-8.1h1.1l2.6,4.1c0.6,0.9,1.1,1.8,1.5,2.6l0,0c-0.1-1.1-0.1-2.1-0.1-3.3v-3.4h1v8.1h-1.1
		l-2.6-4.1c-0.6-0.9-1.1-1.8-1.5-2.7l0,0c0.1,1,0.1,2,0.1,3.3v3.5H130.2z"/>
	<g class="st1">
		<path class="st5" d="M158.3,131.4v-1.7h0.7l1.6,0.9c0.4,0.2,0.7,0.4,0.9,0.6l0,0c-0.1-0.2-0.1-0.4-0.1-0.7v-0.7h0.6v1.7h-0.7
			l-1.6-0.9c-0.3-0.2-0.7-0.4-0.9-0.6l0,0c0,0.2,0.1,0.4,0.1,0.7v0.7H158.3z"/>
		<path class="st5" d="M161.3,131.4v-1.7h0.7l1.6,0.9c0.4,0.2,0.7,0.4,0.9,0.6l0,0c-0.1-0.2-0.1-0.4-0.1-0.7v-0.7h0.6v1.7h-0.7
			l-1.6-0.9c-0.3-0.2-0.7-0.4-0.9-0.6l0,0c0,0.2,0.1,0.4,0.1,0.7v0.7H161.3z"/>
	</g>
</g>
<g id="Layer_2_1_">
	<g>
		<path d="M4.9,1.7L4.9,1.7c1,0,1.9,0.4,2.7,1.3c0.3,0.4,0.5,0.7,0.6,0.9l0,0L7.8,4.1l0,0c0,0-0.1-0.2-0.3-0.5
			c-0.7-1-1.6-1.4-2.6-1.4C4,2.2,3.2,2.6,2.5,3.4C2,4.2,1.7,5,1.7,6c0,1.1,0.3,2,1,2.8C3,9.1,3.2,9.3,3.4,9.4c0.5,0.3,1,0.4,1.4,0.4
			H5c0.6,0,1.1-0.2,1.7-0.6C7,9,7.2,8.7,7.4,8.5c0.1-0.2,0.3-0.4,0.4-0.6l0,0l0.4,0.2l0,0c0,0.1-0.2,0.4-0.4,0.7
			C7.4,9.3,7,9.6,6.7,9.8c-0.5,0.3-1.1,0.5-1.7,0.5c-0.9,0-1.8-0.4-2.5-1.1c-0.5-0.5-0.8-1-1-1.5S1.2,6.6,1.2,6l0,0
			c0-1.2,0.4-2.2,1.2-3.1C3.1,2.1,4,1.7,4.9,1.7z"/>
		<path d="M12.9,1.7L12.9,1.7c1,0,1.9,0.4,2.7,1.2c0.3,0.3,0.4,0.6,0.6,0.8c0.4,0.7,0.6,1.5,0.6,2.2v0.2c0,0.9-0.3,1.8-0.8,2.6
			c-0.1,0.2-0.3,0.4-0.6,0.7L15,9.6c-0.6,0.5-1.3,0.7-2.1,0.7c-1,0-1.8-0.4-2.6-1.1C9.6,8.3,9.2,7.2,9.2,6l0,0
			c0-1.2,0.4-2.2,1.2-3.1C11.1,2.1,12,1.7,12.9,1.7z M9.6,6c0,1.1,0.3,2,1,2.8c0.4,0.4,0.7,0.6,0.9,0.7c0.1,0.1,0.3,0.2,0.6,0.2
			c0.3,0.1,0.5,0.1,0.7,0.1H13c0.6,0,1.3-0.2,1.9-0.7c0.3-0.3,0.6-0.6,0.7-0.8C16,7.6,16.3,6.9,16.3,6l0,0c0-1-0.3-1.9-0.9-2.6
			c-0.7-0.8-1.5-1.1-2.4-1.1s-1.7,0.4-2.4,1.2C9.9,4.2,9.6,5,9.6,6z"/>
		<path d="M18.3,1.7H19c0,0,0.2,0.3,0.5,0.8l4.2,7.2l0,0v-8l0,0h0.4l0,0v8.5l0,0h-0.7c0,0-0.1-0.2-0.3-0.6l-4.4-7.5l0,0v8.1l0,0
			h-0.4l0,0L18.3,1.7L18.3,1.7z"/>
		<path d="M21.2,1.7H22c0,0,0.2,0.3,0.5,0.8l4.2,7.2l0,0v-8l0,0h0.4l0,0v8.5l0,0h-0.7c0,0-0.1-0.2-0.3-0.6l-4.4-7.5l0,0v8.1l0,0
			h-0.4l0,0L21.2,1.7L21.2,1.7z"/>
		<path d="M29.2,1.7h4l0,0v0.5l0,0h-3.5v3.6h2.9v0.5h-2.9v3.6h3.5l0,0v0.5l0,0h-4l0,0L29.2,1.7L29.2,1.7z"/>
		<path d="M38.1,1.7L38.1,1.7c1,0,1.9,0.4,2.7,1.3c0.3,0.4,0.5,0.7,0.6,0.9l0,0L41,4.1l0,0c0,0-0.1-0.2-0.3-0.5
			c-0.7-0.9-1.5-1.4-2.5-1.4c-0.9,0-1.7,0.4-2.4,1.2C35.1,4.2,34.9,5,34.9,6c0,1.1,0.3,2,1,2.8c0.3,0.3,0.5,0.5,0.7,0.6
			c0.5,0.3,1,0.4,1.4,0.4h0.2c0.6,0,1.1-0.2,1.7-0.6c0.3-0.2,0.5-0.5,0.7-0.7c0.1-0.2,0.3-0.4,0.4-0.6l0,0l0.4,0.2l0,0
			c0,0.1-0.2,0.4-0.4,0.7c-0.4,0.5-0.7,0.8-1.1,1c-0.5,0.3-1.1,0.5-1.7,0.5c-0.9,0-1.8-0.4-2.5-1.1c-0.4-0.4-0.7-0.9-0.9-1.4
			c-0.2-0.6-0.3-1.1-0.3-1.7V6c0-1.2,0.4-2.2,1.2-3.1C36.3,2.1,37.2,1.7,38.1,1.7z"/>
		<path d="M41.8,1.7h5.3l0,0v0.5h-2.4v8.1l0,0h-0.5V2.2h-2.4L41.8,1.7L41.8,1.7z"/>
		<path d="M54.2,1.7h4l0,0v0.5l0,0h-3.5v3.6h3v0.5h-3v4.1l0,0h-0.5l0,0V1.7L54.2,1.7z"/>
		<path d="M61.9,1.7h0.6c0,0,0.2,0.4,0.4,1.2l2.7,7.4l0,0h-0.5c0,0-0.1-0.2-0.2-0.5l-0.6-1.7H60c0,0-0.1,0.3-0.4,1l-0.4,1.2h-0.5
			l0,0l2.9-7.9C61.8,2,61.9,1.7,61.9,1.7z M62.2,2.2l-2,5.4h4L62.2,2.2L62.2,2.2z"/>
		<path d="M68.8,1.6L68.8,1.6c0.6,0,1,0.1,1.4,0.4c0.1,0.1,0.2,0.2,0.4,0.3c0.2,0.2,0.2,0.3,0.3,0.3C71,2.8,71.1,2.9,71.1,3
			l-0.4,0.2c-0.1-0.1-0.2-0.3-0.3-0.4c-0.1-0.1-0.2-0.2-0.3-0.3C69.8,2.2,69.3,2,68.9,2l0,0c-0.5,0-0.9,0.1-1.3,0.4
			c-0.1,0.1-0.2,0.2-0.3,0.3c-0.2,0.3-0.4,0.7-0.4,1.1s0.1,0.7,0.4,0.9c0.1,0.1,0.2,0.2,0.4,0.3c0.2,0.1,0.6,0.3,1,0.4
			c0.3,0.1,0.6,0.2,1.1,0.3C69.9,5.9,70,6,70.2,6c0.1,0.1,0.3,0.2,0.5,0.3c0.1,0.1,0.2,0.2,0.3,0.3c0,0.1,0,0.2,0.1,0.4
			c0.1,0.3,0.2,0.6,0.2,1l0,0c0,0.4-0.1,0.8-0.3,1.2c-0.3,0.5-0.6,0.8-1.2,1c-0.3,0.1-0.7,0.2-1.1,0.2c-0.6,0-1.2-0.2-1.7-0.6
			c-0.1-0.1-0.2-0.2-0.3-0.3c-0.2-0.2-0.3-0.3-0.4-0.5c-0.1-0.1-0.1-0.2-0.2-0.4L66,8.5c0.3-0.1,0.4-0.2,0.4-0.2
			c0.1,0.2,0.2,0.4,0.3,0.5C67,9,67.1,9.1,67.2,9.3c0.1,0.1,0.2,0.2,0.3,0.3c0.4,0.3,0.8,0.4,1.3,0.4s0.9-0.1,1.3-0.4
			c0.1,0,0.2-0.1,0.3-0.3c0.2-0.2,0.3-0.4,0.4-0.7c0.1-0.2,0.1-0.4,0.1-0.6l0,0c0-0.4-0.1-0.8-0.4-1.2c-0.1-0.1-0.2-0.2-0.3-0.2
			c-0.1-0.1-0.2-0.1-0.3-0.2c-0.1,0-0.2-0.1-0.4-0.1c-0.9-0.2-1.5-0.4-1.9-0.6c-0.2-0.1-0.3-0.2-0.5-0.3c-0.5-0.4-0.7-0.8-0.7-1.5
			l0,0c0-0.5,0.1-0.9,0.4-1.3c0.1-0.1,0.1-0.2,0.2-0.3s0.2-0.2,0.3-0.3c0.1-0.1,0.2-0.1,0.3-0.2c0.2-0.1,0.3-0.1,0.5-0.2
			C68.3,1.6,68.6,1.6,68.8,1.6z"/>
		<path d="M71.9,1.7h2.3l0,0v0.5h0.6v8.1l0,0h-0.5V2.2h-2.4V1.7L71.9,1.7z"/>
		<path class="st6" d="M24.2,6.5C24.2,6.4,24.2,6.5,24.2,6.5l-2.5-4.3l0,0v8.1l0,0h-0.4l0,0V1.7l0,0H22c0,0,0.2,0.3,0.5,0.8l1.7,3
			l0,0"/>
		<path class="st7" d="M21.2,6.6L21.2,6.6V5.5l0,0l2.5,4.3l0,0V1.7l0,0h0.4l0,0v8.5l0,0h-0.7c0,0-0.1-0.2-0.3-0.6"/>
		<g>
			<path class="st6" d="M49.5,7.2L49.5,7.2l2.3-1.4l0,0l-4.4,0.1l0,0V5.7l0,0L52,5.5l0,0v0.4c0,0-0.2,0.1-0.5,0.3l-1.6,1l0,0"/>
			<path class="st7" d="M49.4,5.6L49.4,5.6H50l0,0L47.7,7l0,0L52,6.9l0,0v0.2l0,0l-4.6,0.1l0,0V6.8c0,0,0.1-0.1,0.3-0.2"/>
		</g>
		<path d="M71.8,1.7h5.3l0,0v0.5h-2.4v8.1l0,0h-0.5V2.2h-2.4V1.7L71.8,1.7z"/>
	</g>
</g>
</svg>
